Coordinates
version=1
nRows=21
nColumns=22
inDegrees=yes

Units are S.I. units (second, meters, Newtons, ...)
If the header above contains a line with 'inDegrees', this indicates whether rotational values are in degrees (yes) or radians (no).

endheader
time	pelvis_tilt	pelvis_list	pelvis_rotation	pelvis_tx	pelvis_ty	pelvis_tz	hip_flexion_r	hip_adduction_r	hip_rotation_r	knee_angle_r	ankle_angle_r	subtalar_angle_r	hip_flexion_l	hip_adduction_l	hip_rotation_l	knee_angle_l	ankle_angle_l	subtalar_angle_l	lumbar_extension	lumbar_bending	lumbar_rotation
      1.32000000	      4.63707642	     -1.54722923	      0.24389675	     -0.63193216	      0.95309760	      0.71720192	     -3.50837566	      3.44169321	    -12.09126514	    -12.94925967	     11.66973042	     -0.36471520	     -3.21914856	     -2.28726326	     -9.83041073	    -13.72768483	     19.69142833	     -8.07537558	    -12.80029051	      3.04315580	    -10.73597548
      1.33000000	      4.64360234	     -1.54724742	      0.24338395	     -0.63198767	      0.95310209	      0.71711865	     -3.51275701	      3.43637611	    -12.09394958	    -12.94777334	     11.66737134	     -0.36447301	     -3.22054260	     -2.28333167	     -9.83427029	    -13.73187264	     19.69250261	     -8.07244767	    -12.78892165	      3.04596255	    -10.73313210
      1.34000000	      4.65023327	     -1.54685913	      0.24472705	     -0.63204693	      0.95310668	      0.71702851	     -3.51730356	      3.43057063	    -12.09737721	    -12.94591141	     11.66464741	     -0.36433673	     -3.22247404	     -2.27864408	     -9.83877173	    -13.73455186	     19.69375408	     -8.06898048	    -12.77692486	      3.04871756	    -10.72700963
      1.35000000	      4.65713236	     -1.54619627	      0.24762703	     -0.63210929	      0.95311197	      0.71693242	     -3.52223250	      3.42440253	    -12.10138047	    -12.94364316	     11.66159943	     -0.36428395	     -3.22527349	     -2.27334619	     -9.84344402	    -13.73559338	     19.69503332	     -8.06490168	    -12.76399503	      3.05110504	    -10.71703821
      1.36000000	      4.66194996	     -1.54107007	      0.24200426	     -0.63216056	      0.95311994	      0.71685561	     -3.53222516	      3.41297181	    -12.12270776	    -12.92537784	     11.64899640	     -0.36388887	     -3.23387751	     -2.26253751	     -9.85942048	    -13.72343640	     19.69932376	     -8.04386878	    -12.74783313	      3.04093388	    -10.67274643
      1.37000000	      4.67126699	     -1.54183938	      0.24765926	     -0.63223409	      0.95312823	      0.71675048	     -3.53603516	      3.40841404	    -12.12002671	    -12.92960954	     11.64757499	     -0.36390105	     -3.23893236	     -2.25842446	     -9.86104375	    -13.72410169	     19.69890008	     -8.04103649	    -12.73613586	      3.04565082	    -10.66735244
      1.38000000	      4.71733220	     -1.53295948	      0.22146213	     -0.63227377	      0.95320394	      0.71669361	     -3.58993642	      3.39349028	    -12.08514065	    -12.91536080	     11.63592511	     -0.35732551	     -3.31764888	     -2.23833714	     -9.89472642	    -13.66977448	     19.66168480	     -7.92254962	    -12.76691213	      3.03055240	    -10.60486367
      1.39000000	      4.72593050	     -1.53399867	      0.22777378	     -0.63234966	      0.95321305	      0.71658586	     -3.59340936	      3.38886789	    -12.08368015	    -12.91808193	     11.63560832	     -0.35733350	     -3.32175066	     -2.23487508	     -9.89536656	    -13.67022432	     19.66220804	     -7.92126566	    -12.75430131	      3.03629592	    -10.59977609
      1.40000000	      4.74966562	     -1.52999365	      0.21255083	     -0.63240482	      0.95324892	      0.71651135	     -3.61240310	      3.37700128	    -12.07060199	    -12.92394814	     11.63829840	     -0.35376490	     -3.37090003	     -2.21952575	     -9.89956626	    -13.62074480	     19.66464049	     -7.87434177	    -12.75914599	      3.03181738	    -10.55715042
      1.41000000	      4.75807140	     -1.53017968	      0.21928191	     -0.63248837	      0.95325880	      0.71641225	     -3.61526753	      3.37247243	    -12.06855575	    -12.92569418	     11.63855427	     -0.35368846	     -3.37442306	     -2.21625321	     -9.90187154	    -13.62062183	     19.66422992	     -7.87294540	    -12.74912308	      3.03679305	    -10.55435252
      1.42000000	      4.79257223	     -1.51824202	      0.20445682	     -0.63254591	      0.95330972	      0.71635351	     -3.64566021	      3.35302368	    -12.05538400	    -12.93258226	     11.65867419	     -0.34791886	     -3.43456580	     -2.19565407	     -9.92160820	    -13.57235448	     19.65436899	     -7.80490475	    -12.76809324	      3.02249909	    -10.52867670
      1.43000000	      4.79976780	     -1.51790516	      0.21186594	     -0.63264998	      0.95331732	      0.71625578	     -3.64558291	      3.34858155	    -12.05299189	    -12.93445282	     11.65886264	     -0.34787017	     -3.43672795	     -2.19182425	     -9.92589286	    -13.56792664	     19.65451875	     -7.80272737	    -12.76267681	      3.03019419	    -10.53006163
      1.44000000	      4.81061785	     -1.51589150	      0.20982044	     -0.63273820	      0.95332999	      0.71618716	     -3.64527609	      3.34140811	    -12.05184012	    -12.94676220	     11.66571867	     -0.34686475	     -3.45998042	     -2.18554064	     -9.94762499	    -13.53234210	     19.66080968	     -7.77921511	    -12.75891864	      3.03436190	    -10.55958334
      1.45000000	      4.81930149	     -1.51378743	      0.21681545	     -0.63284537	      0.95333822	      0.71610670	     -3.64640287	      3.33581545	    -12.05051128	    -12.94957588	     11.66756765	     -0.34670907	     -3.46321900	     -2.18147827	     -9.95070036	    -13.52888727	     19.66184892	     -7.77389033	    -12.75486518	      3.03843187	    -10.55944780
      1.46000000	      4.86551880	     -1.48671622	      0.21551972	     -0.63293806	      0.95339321	      0.71604256	     -3.68090749	      3.29772413	    -12.08756230	    -12.97118799	     11.72622640	     -0.34186962	     -3.52705343	     -2.14751535	     -9.96765631	    -13.48819574	     19.66578095	     -7.63231310	    -12.79703732	      3.00881881	    -10.58073352
      1.47000000	      4.87195396	     -1.48750064	      0.21572551	     -0.63305925	      0.95339756	      0.71600147	     -3.67907924	      3.29720570	    -12.08732233	    -12.97050775	     11.72623845	     -0.34187492	     -3.52611070	     -2.14762676	     -9.96790540	    -13.48738446	     19.66565836	     -7.63202065	    -12.79456576	      3.00890183	    -10.58117833
      1.48000000	      4.88768716	     -1.48861787	      0.22669821	     -0.63317459	      0.95341196	      0.71592106	     -3.67761051	      3.29410259	    -12.08247385	    -12.99437505	     11.73005501	     -0.34228067	     -3.53616345	     -2.14775092	     -9.97796056	    -13.48280964	     19.66215915	     -7.60745716	    -12.79966440	      3.02123399	    -10.63189042
      1.49000000	      4.91076630	     -1.48410139	      0.24820052	     -0.63330402	      0.95343080	      0.71583909	     -3.68658652	      3.28517212	    -12.10720801	    -13.01225204	     11.74493660	     -0.34297496	     -3.54005133	     -2.14426867	     -9.96929987	    -13.50254806	     19.66335569	     -7.55225735	    -12.81745092	      3.02207960	    -10.67828116
      1.50000000	      4.91930420	     -1.48480637	      0.25346543	     -0.63339438	      0.95343234	      0.71578678	     -3.68789900	      3.28330392	    -12.10740901	    -13.01608740	     11.74542807	     -0.34311094	     -3.54195304	     -2.14327529	     -9.96889066	    -13.50404858	     19.66326805	     -7.54925831	    -12.80956050	      3.02521619	    -10.67949330
      1.51000000	      4.93686389	     -1.48784317	      0.26806800	     -0.63351594	      0.95344173	      0.71572329	     -3.68406591	      3.28190199	    -12.11554655	    -13.04854275	     11.75173177	     -0.34412092	     -3.54546368	     -2.14618232	     -9.95807414	    -13.51532723	     19.66595157	     -7.52733506	    -12.82050811	      3.03536691	    -10.72358173
      1.52000000	      4.94660792	     -1.48798507	      0.27464911	     -0.63358128	      0.95344077	      0.71568049	     -3.68715744	      3.27978933	    -12.11584093	    -13.05544191	     11.75273858	     -0.34429296	     -3.54879194	     -2.14509598	     -9.95606168	    -13.52080152	     19.66625017	     -7.52483106	    -12.81007602	      3.03800060	    -10.72659128
